<svg width="18" height="22" viewBox="0 0 18 22" fill="none" xmlns="http://www.w3.org/2000/svg">
<path d="M17.6211 7.45C16.5711 2.83 12.5411 0.75 9.0011 0.75C9.0011 0.75 9.0011 0.75 8.9911 0.75C5.46107 0.75 1.42107 2.82 0.371072 7.44C-0.798928 12.6 2.36107 16.97 5.22107 19.72C6.28107 20.74 7.6411 21.25 9.0011 21.25C10.3611 21.25 11.7211 20.74 12.7711 19.72C15.6311 16.97 18.7911 12.61 17.6211 7.45ZM9.0011 12.46C7.2611 12.46 5.85107 11.05 5.85107 9.31C5.85107 7.57 7.2611 6.16 9.0011 6.16C10.7411 6.16 12.1511 7.57 12.1511 9.31C12.1511 11.05 10.7411 12.46 9.0011 12.46Z" fill="#0C101B"/>
</svg>
