<svg width="24" height="24" viewBox="0 0 24 24" fill="none" xmlns="http://www.w3.org/2000/svg">
<path d="M19.1156 20.926L19.1115 20.9277C18.6064 21.1382 18.0548 21.25 17.45 21.25C16.5486 21.25 15.5587 21.0379 14.484 20.58C13.3918 20.1146 12.2912 19.4843 11.1924 18.6844C10.0742 17.8676 9.01357 16.9629 8.00036 15.9597C6.99753 14.9469 6.09353 13.8871 5.28764 12.7804C4.49486 11.678 3.86508 10.5871 3.41075 9.51784C2.96266 8.45326 2.75 7.46267 2.75 6.54C2.75 5.94888 2.85414 5.39408 3.05636 4.88854L3.05637 4.88855L3.05792 4.88459C3.25506 4.38355 3.56991 3.91456 4.02467 3.48555L4.03046 3.48008L4.03614 3.47449C4.56293 2.95593 5.08187 2.75 5.59 2.75C5.76498 2.75 5.93314 2.78783 6.07545 2.85614L6.07541 2.85622L6.08571 2.86097C6.23429 2.92955 6.35581 3.02601 6.45336 3.16691L6.45331 3.16694L6.45831 3.17398L8.77831 6.44398L8.7783 6.44399L8.78135 6.44823C8.93418 6.66049 9.03246 6.83904 9.09584 6.99398L9.09574 6.99401L9.10064 7.00544C9.16141 7.14722 9.18 7.25575 9.18 7.32C9.18 7.40903 9.15514 7.51553 9.07935 7.64004L9.07305 7.6504L9.06708 7.66096C8.97896 7.81685 8.83569 8.00365 8.62967 8.20967L8.62454 8.2148L8.61951 8.22003L7.86359 9.00579C7.6056 9.26699 7.49 9.59078 7.49 9.93C7.49 10.081 7.51008 10.2127 7.54239 10.3419L7.55275 10.3833L7.56775 10.4233C7.58735 10.4756 7.60703 10.522 7.61949 10.5514C7.62075 10.5543 7.62193 10.5571 7.62302 10.5597C7.63602 10.5904 7.63857 10.5975 7.63858 10.5975L7.6596 10.6605L7.69158 10.7191C7.90702 11.1141 8.25419 11.5888 8.70746 12.1245L8.70743 12.1245L8.71287 12.1308C9.1705 12.6596 9.66123 13.2016 10.1946 13.7453L10.1996 13.7503L10.2046 13.7553C10.7507 14.2912 11.2851 14.7952 11.8346 15.2617L11.8355 15.2625C12.3777 15.7213 12.8536 16.0582 13.2591 16.2728L13.2944 16.2915L13.3315 16.3064C13.3366 16.3084 13.3476 16.3132 13.38 16.328L13.3878 16.3316C13.4149 16.3441 13.4533 16.3617 13.4946 16.3794L13.5105 16.3862L13.5267 16.3922C13.7163 16.4633 13.8919 16.48 14.04 16.48C14.4185 16.48 14.7355 16.3341 14.9782 16.0924L15.7368 15.3438L15.7368 15.3438L15.7403 15.3403C15.96 15.1207 16.1389 14.987 16.2769 14.9149L16.2988 14.9035L16.32 14.8906C16.4472 14.8132 16.5438 14.79 16.64 14.79C16.7201 14.79 16.8238 14.806 16.966 14.8642C17.1216 14.9278 17.3028 15.0273 17.5222 15.1761L20.8258 17.5215L20.8258 17.5216L20.8331 17.5266C20.9913 17.6362 21.0719 17.74 21.1189 17.8418C21.1879 18.0176 21.22 18.1689 21.22 18.33C21.22 18.5775 21.1653 18.8383 21.0418 19.0997C20.9016 19.3967 20.7219 19.6742 20.4843 19.9364C20.0604 20.4034 19.6104 20.7232 19.1156 20.926Z" fill="#0C101B" stroke="#0C101B" stroke-width="1.5" stroke-miterlimit="10"/>
</svg>
